<svg xmlns="http://www.w3.org/2000/svg" width="16.997" height="20.398" viewBox="0 0 16.997 20.398"><defs><style>.a{stroke:#000;stroke-linejoin:round;stroke-width:0.8px;}.b{fill:#fff;stroke:#060606;stroke-width:1.5px;}.c{stroke:none;}.d{fill:none;}</style></defs><g transform="translate(-26.263 0.498)"><path class="a" d="M38.3,11.441l-.05-.023c-.119-.054-.239-.105-.361-.153s-.269-.1-.406-.149c-.108-.036-.218-.069-.328-.1-.168-.049-.338-.093-.513-.131l-.18-.035-.041-.008c-.1-.02-.207-.038-.312-.053l-.03,0h0l-.03,0c-.087-.013-.174-.025-.264-.036l-.307-.025a8.3,8.3,0,0,0-1.139,0l-.109.009-.051,0-.127.011c-.117.012-.233.028-.348.047l-.034,0c-.079.013-.158.028-.236.042s-.172.032-.257.051c-.165.037-.33.08-.488.126-.127.036-.252.076-.369.117l-.081.029c-.249.088-.5.189-.736.3l-.064.03v0a8.131,8.131,0,0,0-4.611,7.3c0,.071,0,.141.009.212l.021.492H42.99l.022-.486c0-.072.009-.144.009-.217A8.12,8.12,0,0,0,38.3,11.441ZM27.615,18.709a7.331,7.331,0,0,1,4.19-6.516l.081-.032.009-.009c.2-.09.4-.172.605-.244l.065-.023c.112-.039.223-.074.339-.107.144-.042.292-.08.439-.113.076-.016.153-.032.231-.046.062-.011.125-.023.187-.033l.031-.006c.113-.018.227-.034.34-.046l.259-.023a6.943,6.943,0,0,1,1.055,0l.252.021.2.026.091.013c.095.014.189.03.284.048l.044.008.157.031c.156.034.309.074.461.118.1.029.2.059.3.092q.185.062.366.134t.343.146l.02.009a7.327,7.327,0,0,1,4.267,6.552H27.615Z" transform="translate(-0.161)"/><g class="b" transform="translate(29.663 -0.498)"><circle class="c" cx="5" cy="5" r="5"/><circle class="d" cx="5" cy="5" r="4.25"/></g></g></svg>